<svg xmlns="http://www.w3.org/2000/svg" data-name="Layer 1" viewBox="0 0 36 36"><path fill-rule="evenodd" d="M31.51 19.34a5.39 5.39 0 0 1-2.93.4 2.6 2.6 0 0 1-2.33-2c-.31-1.49.24-2.55 1.5-2.91a2.52 2.52 0 0 1 2.11.53.84.84 0 1 0 1-1.33 4.09 4.09 0 0 0-3.61-.82 3.89 3.89 0 0 0-2.7 4.87 4.22 4.22 0 0 0 3.8 3.29 7 7 0 0 0 2.92-.21 4.91 4.91 0 0 1-.53 3.91 6.09 6.09 0 0 1-5 2.47c-1.65.08-4.22-.7-4.94-1.78a.8.8 0 0 0-.78-.37.84.84 0 0 0-.7.51c-.73 1.77-2.29 2.67-4.69 2.76-2.32-.14-3.6-1-4.24-2.9a3.81 3.81 0 0 1-.11-2.9A2.08 2.08 0 0 1 11.9 22a1.64 1.64 0 0 1 1.24.24 1.49 1.49 0 0 1 .6 1A.84.84 0 1 0 15.4 23a3.12 3.12 0 0 0-1.28-2.13 3.19 3.19 0 0 0-2.52-.53 3.68 3.68 0 0 0-2.75 1.82 4.45 4.45 0 0 0-.38 2.8 7.52 7.52 0 0 1-2.49-1c-2.88-1.78-4.17-6-4-9.58L3 15a5.77 5.77 0 0 0 4.51.9.86.86 0 0 0 .65-.9 2.45 2.45 0 0 1 1.35-2 2.6 2.6 0 0 1 2.33.16.9.9 0 0 0 .87-.05.83.83 0 0 0 .37-.77c-.31-3.59 1.39-4.54 2.59-4.93a4 4 0 0 1 4.62 2 4.51 4.51 0 0 1 .27 3.75 2.82 2.82 0 0 1-1.89 1.65 1.26 1.26 0 0 1-1.15-.31 1 1 0 0 1-.39-.85.85.85 0 0 0-1.67-.27 2.6 2.6 0 0 0 .9 2.35 3 3 0 0 0 2.64.75 4.55 4.55 0 0 0 3.09-2.61 5.77 5.77 0 0 0 .1-4.32A7.2 7.2 0 0 1 28.28 8c3 .88 5.23 3.06 5.63 5.59.35 2.16-.26 4.79-2.4 5.75z"/></svg>