<svg xmlns="http://www.w3.org/2000/svg" width="32" height="32" fill="none"><g fill="#B480F4" clip-path="url(#a)"><path d="M16 19.281a3.281 3.281 0 1 0 0-6.562 3.281 3.281 0 0 0 0 6.562Z"/><path d="M16 .375C7.37.375.375 7.371.375 16c0 8.63 6.996 15.625 15.625 15.625 8.63 0 15.625-6.996 15.625-15.625C31.625 7.37 24.629.375 16 .375Zm9.654 19.596c-.075 1.486-.493 2.95-1.575 4.022-1.093 1.08-2.565 1.484-4.065 1.558h-8.028c-1.5-.074-2.972-.477-4.065-1.558-1.082-1.071-1.5-2.536-1.575-4.022V12.03c.075-1.486.493-2.95 1.575-4.022 1.093-1.081 2.565-1.484 4.065-1.558h8.028c1.5.074 2.971.477 4.065 1.558 1.082 1.071 1.5 2.536 1.575 4.022v7.942Z"/><path d="M19.913 8.259c-1.956-.054-5.87-.054-7.825 0-1.017.028-2.171.28-2.896 1.055-.753.805-1.038 1.778-1.067 2.866-.05 1.91 0 7.64 0 7.64.033 1.088.314 2.06 1.067 2.866.725.774 1.879 1.027 2.896 1.055 1.956.054 5.87.054 7.825 0 1.017-.028 2.17-.28 2.896-1.055.753-.805 1.038-1.778 1.067-2.866v-7.64c-.03-1.088-.314-2.06-1.067-2.866-.726-.774-1.879-1.027-2.896-1.055ZM16 21.086a5.085 5.085 0 1 1 0-10.17 5.085 5.085 0 0 1 0 10.17Zm5.108-9.122a1.018 1.018 0 1 1 0-2.035 1.018 1.018 0 0 1 0 2.035Z"/></g><defs><clipPath id="a"><path fill="#fff" d="M0 0h32v32H0z"/></clipPath></defs></svg>