<svg width="32" height="32" viewBox="0 0 32 32" fill="none" xmlns="http://www.w3.org/2000/svg">
<g clip-path="url(#clip0_453_48)">
<path d="M30 28H2.00001C0.895397 28 0 27.1046 0 26C0 24.8955 0.895397 24 2.00001 24H30.0001C31.1046 24 32.0001 24.8955 32.0001 26C32 27.1046 31.1046 28 30 28Z" fill="#DEDEDE"/>
<path d="M30 18H2.00001C0.895397 18 0 17.1046 0 16C0 14.8955 0.895397 14 2.00001 14H30.0001C31.1046 14 32.0001 14.8954 32.0001 16C32.0001 17.1046 31.1046 18 30 18Z" fill="#DEDEDE"/>
<path d="M30 7.99996H2.00001C0.895397 7.99996 0 7.10457 0 5.99995C0 4.89534 0.895397 3.99994 2.00001 3.99994H30.0001C31.1046 3.99994 32.0001 4.89534 32.0001 5.99995C32.0001 7.10457 31.1046 7.99996 30 7.99996Z" fill="#DEDEDE"/>
</g>
<defs>
<clipPath id="clip0_453_48">
<rect width="32" height="32" fill="white"/>
</clipPath>
</defs>
</svg>
