<svg width="21" height="21" viewBox="0 0 21 21" fill="none" xmlns="http://www.w3.org/2000/svg">
<path d="M12.1406 3.93747V17.0625C12.1406 17.1609 12.075 17.2922 11.9766 17.325C11.9438 17.3578 11.8781 17.3906 11.8125 17.3906C11.7797 17.3906 11.7141 17.3906 11.6812 17.3578L3.80625 13.5843C3.70781 13.5187 3.60938 13.4203 3.60938 13.289V7.64528C3.60938 7.51403 3.675 7.4156 3.80625 7.34997L11.6812 3.64216C11.7797 3.60935 11.9109 3.60935 12.0094 3.67497C12.075 3.70778 12.1406 3.83903 12.1406 3.93747ZM2.625 7.54685H1.3125C1.11562 7.54685 0.984375 7.6781 0.984375 7.87497V13.125C0.984375 13.3218 1.11562 13.4531 1.3125 13.4531H2.625C2.82187 13.4531 2.95312 13.3218 2.95312 13.125V7.87497C2.95312 7.6781 2.82187 7.54685 2.625 7.54685ZM17.2266 17.2265C19.0312 15.4218 20.0156 13.0265 20.0156 10.5C20.0156 7.97341 19.0312 5.5781 17.2266 3.77341C17.0953 3.64216 16.8984 3.64216 16.7672 3.77341C16.6359 3.90466 16.6359 4.10153 16.7672 4.23278C18.4406 5.90622 19.3594 8.13747 19.3594 10.5C19.3594 12.8625 18.4406 15.0937 16.7672 16.7672C16.6359 16.8984 16.6359 17.0953 16.7672 17.2265C16.8328 17.2922 16.9312 17.325 16.9969 17.325C17.0953 17.325 17.1609 17.2922 17.2266 17.2265ZM15.3562 15.3562C16.6687 14.0437 17.3906 12.3375 17.3906 10.5C17.3906 8.66247 16.6687 6.92341 15.3562 5.64372C15.225 5.51247 15.0281 5.51247 14.8969 5.64372C14.7656 5.77497 14.7656 5.97185 14.8969 6.1031C16.0781 7.28435 16.7344 8.82653 16.7344 10.5C16.7344 12.1734 16.0781 13.7156 14.8969 14.8968C14.7656 15.0281 14.7656 15.225 14.8969 15.3562C14.9625 15.4218 15.0609 15.4547 15.1266 15.4547C15.1922 15.4547 15.3234 15.4218 15.3562 15.3562ZM13.5188 13.5187C14.3391 12.6984 14.7656 11.6484 14.7656 10.5C14.7656 9.35153 14.3063 8.30153 13.5188 7.48122C13.3875 7.34997 13.1906 7.34997 13.0594 7.48122C12.9281 7.61247 12.9281 7.80935 13.0594 7.9406C13.7484 8.62966 14.1094 9.5156 14.1094 10.5C14.1094 11.4843 13.7484 12.3703 13.0594 13.0593C12.9281 13.1906 12.9281 13.3875 13.0594 13.5187C13.125 13.5843 13.2234 13.6172 13.2891 13.6172C13.3547 13.6172 13.4531 13.5843 13.5188 13.5187Z" fill="#DEDEDE"/>
</svg>
