<svg xmlns="http://www.w3.org/2000/svg" width="32" height="32" fill="none"><g fill="#B480F4" clip-path="url(#a)"><path d="M16 0C7.165 0 0 7.165 0 16s7.165 16 16 16 16-7.165 16-16S24.835 0 16 0Zm.34 25.316s-.001 0 0 0h-.005a9.573 9.573 0 0 1-4.576-1.166l-5.077 1.332 1.359-4.961a9.552 9.552 0 0 1-1.278-4.786c.002-5.278 4.298-9.573 9.576-9.573a9.515 9.515 0 0 1 6.774 2.808 9.514 9.514 0 0 1 2.802 6.772c-.002 5.279-4.298 9.574-9.576 9.574Z"/><path d="M16.342 7.78c-4.39 0-7.96 3.568-7.963 7.956 0 1.503.42 2.967 1.217 4.234l.19.301-.805 2.936 3.013-.79.29.173a7.947 7.947 0 0 0 4.052 1.109h.003c4.387 0 7.957-3.57 7.96-7.957a7.907 7.907 0 0 0-2.33-5.63 7.907 7.907 0 0 0-5.627-2.333Zm4.682 11.377c-.2.558-1.155 1.068-1.615 1.137a3.282 3.282 0 0 1-1.507-.095 13.78 13.78 0 0 1-1.364-.504c-2.4-1.036-3.968-3.452-4.088-3.611-.12-.16-.977-1.298-.977-2.475s.618-1.756.837-1.995a.88.88 0 0 1 .639-.3c.16 0 .319.002.458.008.147.008.345-.055.539.411.199.48.678 1.656.737 1.776.06.12.1.26.02.42-.08.159-.345.503-.598.817-.106.132-.244.25-.105.489.14.239.62 1.022 1.331 1.657.914.814 1.685 1.067 1.925 1.187.239.12.378.1.518-.06s.598-.698.758-.938c.159-.24.319-.2.538-.12.22.08 1.396.659 1.635.779.24.12.399.18.458.279.06.1.06.579-.14 1.138Z"/></g><defs><clipPath id="a"><path fill="#fff" d="M0 0h32v32H0z"/></clipPath></defs></svg>