<svg width="490" height="512" viewBox="0 0 490 512" fill="none" xmlns="http://www.w3.org/2000/svg">
<path d="M245 512C380.31 512 490 397.385 490 256C490 114.615 380.31 0 245 0C109.69 0 0 114.615 0 256C0 397.385 109.69 512 245 512Z" fill="#694A8E"/>
<path d="M245 485C378.929 485 487.5 376.429 487.5 242.5C487.5 108.571 378.929 0 245 0C111.071 0 2.5 108.571 2.5 242.5C2.5 376.429 111.071 485 245 485Z" fill="#B480F4"/>
<path opacity="0.5" d="M341.8 20.1L22.5999 339.2C11.8999 314.7 5.19995 288.1 3.19995 260.2L262.7 0.599976C290.6 2.69998 317.2 9.39998 341.8 20.1Z" fill="white"/>
<path opacity="0.5" d="M456.3 123.5L126 453.8C105.4 442.2 86.8 427.7 70.5 410.8L413.4 68C430.2 84.2 444.7 102.9 456.3 123.5Z" fill="white"/>
<path opacity="0.5" d="M403.5 58.9001L61.4999 400.9C56.1999 394.7 51.0999 388.2 46.3999 381.5L384.1 43.8C390.8 48.5 397.3 53.6001 403.5 58.9001Z" fill="white"/>
<path opacity="0.5" d="M479.9 182L184.5 477.4C175.6 475.1 166.9 472.3 158.4 469.1L471.6 155.9C474.8 164.4 477.6 173.1 479.9 182Z" fill="white"/>
<path opacity="0.5" d="M487.5 242.5C487.5 244.2 487.5 245.8 487.4 247.5C484.8 115.9 377.3 10 245 10C112.7 10 5.2 115.9 2.6 247.5C2.6 245.8 2.5 244.2 2.5 242.5C2.5 108.6 111.1 0 245 0C378.9 0 487.5 108.6 487.5 242.5Z" fill="white"/>
<path opacity="0.5" d="M442 253C442 357.9 356.9 443 252 443C193.1 443 140.4 416.1 105.5 374C140.2 411.5 189.8 435 245 435C349.9 435 435 349.9 435 245C435 199 418.7 156.9 391.5 124C422.8 157.9 442 203.2 442 253Z" fill="white"/>
<path d="M245 435C349.934 435 435 349.934 435 245C435 140.066 349.934 55 245 55C140.066 55 55 140.066 55 245C55 349.934 140.066 435 245 435Z" fill="#C090FC"/>
<path d="M389 121C355.7 92.3 312.4 75 265 75C160.1 75 75 160.1 75 265C75 312.4 92.3 355.7 121 389C80.6 354.1 55 302.6 55 245C55 140.1 140.1 55 245 55C302.5 55 354.1 80.6 389 121Z" fill="#694A8E"/>
<path opacity="0.25" d="M402.5 139.1C279.5 182.3 180.7 277.2 132.3 397.7C128.1 394.6 124 391.4 120 387.9C91.3 354.6 74 311.3 74 264C74 159.1 159.1 74 264 74C311.4 74 354.7 91.3 387.9 120C393.2 126.1 398 132.5 402.5 139.1Z" fill="white"/>
<path d="M260.799 350C245.44 350 231.124 347.522 217.85 342.566C204.766 337.42 193.389 330.177 183.719 320.837C174.048 311.497 166.463 300.537 160.964 287.957C155.655 275.377 153 261.558 153 246.5C153 231.442 155.655 217.623 160.964 205.043C166.463 192.463 174.048 181.503 183.719 172.163C193.579 162.823 205.051 155.675 218.135 150.72C231.219 145.573 245.535 143 261.084 143C278.339 143 293.888 146.05 307.731 152.149C321.762 158.058 333.519 166.826 343 178.453L313.419 205.901C306.593 198.086 299.008 192.272 290.665 188.46C282.321 184.457 273.22 182.456 263.359 182.456C254.068 182.456 245.535 183.981 237.76 187.03C229.986 190.08 223.254 194.464 217.566 200.182C211.877 205.901 207.421 212.667 204.198 220.482C201.164 228.297 199.647 236.97 199.647 246.5C199.647 256.03 201.164 264.703 204.198 272.518C207.421 280.333 211.877 287.099 217.566 292.818C223.254 298.536 229.986 302.92 237.76 305.97C245.535 309.019 254.068 310.544 263.359 310.544C273.22 310.544 282.321 308.638 290.665 304.826C299.008 300.823 306.593 294.819 313.419 286.814L343 314.261C333.519 325.888 321.762 334.751 307.731 340.851C293.888 346.95 278.245 350 260.799 350Z" fill="#9C84B9"/>
<path d="M257.799 347C242.44 347 228.124 344.522 214.85 339.566C201.766 334.42 190.389 327.177 180.719 317.837C171.048 308.497 163.463 297.537 157.964 284.957C152.655 272.377 150 258.558 150 243.5C150 228.442 152.655 214.623 157.964 202.043C163.463 189.463 171.048 178.503 180.719 169.163C190.579 159.823 202.051 152.675 215.135 147.72C228.219 142.573 242.535 140 258.084 140C275.339 140 290.888 143.05 304.731 149.149C318.762 155.058 330.519 163.826 340 175.453L310.419 202.901C303.593 195.086 296.008 189.272 287.665 185.46C279.321 181.457 270.22 179.456 260.359 179.456C251.068 179.456 242.535 180.981 234.76 184.03C226.986 187.08 220.254 191.464 214.566 197.182C208.877 202.901 204.421 209.667 201.198 217.482C198.164 225.297 196.647 233.97 196.647 243.5C196.647 253.03 198.164 261.703 201.198 269.518C204.421 277.333 208.877 284.099 214.566 289.818C220.254 295.536 226.986 299.92 234.76 302.97C242.535 306.019 251.068 307.544 260.359 307.544C270.22 307.544 279.321 305.638 287.665 301.826C296.008 297.823 303.593 291.819 310.419 283.814L340 311.261C330.519 322.888 318.762 331.751 304.731 337.851C290.888 343.95 275.245 347 257.799 347Z" fill="#694A8E"/>
<rect x="227" y="121" width="36" height="259" fill="#694A8E"/>
<rect x="227" y="114" width="36" height="259" fill="#694A8E"/>
<path d="M196.876 236L151 262.678L154.093 274.478L157.186 284.226L162.34 295L201 269.861L198.938 263.191L196.876 253.957L196.361 244.209L196.876 236Z" fill="#9C84B9"/>
<path d="M263 200L227 222.696V258L263 238.835V200Z" fill="#9C84B9"/>
</svg>
