<svg width="23" height="23" viewBox="0 0 23 23" fill="none" xmlns="http://www.w3.org/2000/svg">
<g clip-path="url(#clip0_19_152)">
<path d="M11.5 0C5.15891 0 0 5.15891 0 11.5C0 17.8411 5.15891 23 11.5 23C17.8411 23 23 17.8411 23 11.5C23 5.15891 17.8412 0 11.5 0ZM11.5 21.7567C8.68277 21.7567 6.12733 20.6148 4.27184 18.7698C3.53086 18.033 2.90185 17.1839 2.41208 16.2507C1.66612 14.8295 1.24326 13.2133 1.24326 11.5C1.24326 5.84441 5.84441 1.24326 11.5 1.24326C14.1826 1.24326 16.6274 2.2789 18.4571 3.97082C19.4057 4.84794 20.189 5.90129 20.7538 7.07866C21.3964 8.41819 21.7567 9.9178 21.7567 11.5C21.7567 17.1556 17.1556 21.7567 11.5 21.7567Z" fill="#8D8D8D"/>
<path d="M7.74442 10.179C8.43105 10.179 8.98768 9.6224 8.98768 8.93576C8.98768 8.24913 8.43105 7.6925 7.74442 7.6925C7.05779 7.6925 6.50116 8.24913 6.50116 8.93576C6.50116 9.6224 7.05779 10.179 7.74442 10.179Z" fill="#8D8D8D"/>
<path d="M15.4371 10.179C16.1237 10.179 16.6804 9.6224 16.6804 8.93576C16.6804 8.24913 16.1237 7.6925 15.4371 7.6925C14.7505 7.6925 14.1938 8.24913 14.1938 8.93576C14.1938 9.6224 14.7505 10.179 15.4371 10.179Z" fill="#8D8D8D"/>
<path d="M11.478 17.8714C13.8833 17.8714 16.1883 16.6414 17.5081 14.5991L16.4639 13.9243C15.2519 15.7997 13.0351 16.8463 10.8154 16.5902C9.08553 16.3907 7.48584 15.3941 6.53606 13.9243L5.49188 14.5991C6.64112 16.3777 8.57796 17.5836 10.6729 17.8253C10.9418 17.8563 11.2103 17.8714 11.478 17.8714Z" fill="#8D8D8D"/>
</g>
<defs>
<clipPath id="clip0_19_152">
<rect width="23" height="23" fill="white"/>
</clipPath>
</defs>
</svg>
