<svg width="32" height="32" viewBox="0 0 32 32" fill="none" xmlns="http://www.w3.org/2000/svg">
<g clip-path="url(#clip0_432_62)">
<path d="M16 19.2812C17.8122 19.2812 19.2812 17.8122 19.2812 16C19.2812 14.1878 17.8122 12.7188 16 12.7188C14.1878 12.7188 12.7188 14.1878 12.7188 16C12.7188 17.8122 14.1878 19.2812 16 19.2812Z" fill="#B480F4"/>
<path d="M16 0.375C7.37056 0.375 0.375 7.37056 0.375 16C0.375 24.6294 7.37056 31.625 16 31.625C24.6294 31.625 31.625 24.6294 31.625 16C31.625 7.37056 24.6294 0.375 16 0.375ZM25.6536 19.9713C25.5786 21.4568 25.1612 22.9216 24.0786 23.9927C22.9856 25.0739 21.5137 25.4768 20.0139 25.5511H11.9861C10.4861 25.4768 9.0145 25.0742 7.92144 23.9927C6.83881 22.9216 6.42144 21.4568 6.34644 19.9713V12.0288C6.42144 10.5433 6.83887 9.07837 7.92144 8.00725C9.0145 6.926 10.4863 6.52312 11.9861 6.44894H20.0139C21.5139 6.52312 22.9855 6.92581 24.0786 8.00725C25.1612 9.07837 25.5786 10.5433 25.6536 12.0288L25.6536 19.9713Z" fill="#B480F4"/>
<path d="M19.9127 8.25863C17.9573 8.20501 14.0435 8.20501 12.0882 8.25863C11.0706 8.28657 9.91703 8.53988 9.19203 9.31426C8.43866 10.1192 8.15397 11.0917 8.12509 12.1796C8.07434 14.0891 8.12509 19.8204 8.12509 19.8204C8.15816 20.9082 8.43866 21.8808 9.19203 22.6858C9.91703 23.4604 11.0706 23.7134 12.0882 23.7414C14.0435 23.795 17.9573 23.795 19.9127 23.7414C20.9302 23.7134 22.0838 23.4601 22.8088 22.6858C23.5622 21.8808 23.8468 20.9083 23.8757 19.8204V12.1796C23.8468 11.0917 23.5622 10.1192 22.8088 9.31426C22.0835 8.53963 20.93 8.28657 19.9127 8.25863ZM16.0002 21.0859C14.9943 21.0859 14.0109 20.7877 13.1746 20.2288C12.3382 19.67 11.6863 18.8756 11.3014 17.9463C10.9164 17.017 10.8157 15.9944 11.0119 15.0078C11.2082 14.0212 11.6926 13.115 12.4039 12.4037C13.1151 11.6924 14.0214 11.208 15.0079 11.0118C15.9945 10.8156 17.0171 10.9163 17.9465 11.3012C18.8758 11.6862 19.6701 12.338 20.229 13.1744C20.7878 14.0108 21.0861 14.9941 21.0861 16C21.0861 17.3489 20.5503 18.6425 19.5965 19.5963C18.6427 20.5501 17.349 21.0859 16.0002 21.0859ZM21.1077 11.9639C20.9066 11.9638 20.7099 11.9041 20.5427 11.7923C20.3754 11.6805 20.2451 11.5217 20.1681 11.3358C20.0912 11.1499 20.0711 10.9454 20.1104 10.7481C20.1496 10.5508 20.2465 10.3696 20.3888 10.2273C20.5311 10.0851 20.7123 9.98826 20.9096 9.94904C21.1069 9.90981 21.3114 9.92996 21.4973 10.007C21.6831 10.084 21.842 10.2143 21.9537 10.3816C22.0655 10.5489 22.1252 10.7455 22.1252 10.9467C22.1252 11.0803 22.0988 11.2126 22.0477 11.336C21.9966 11.4594 21.9216 11.5716 21.8271 11.666C21.7327 11.7605 21.6205 11.8354 21.4971 11.8865C21.3736 11.9376 21.2413 11.9639 21.1077 11.9639Z" fill="#B480F4"/>
</g>
<defs>
<clipPath id="clip0_432_62">
<rect width="32" height="32" fill="white"/>
</clipPath>
</defs>
</svg>
