<svg width="16" height="16" viewBox="0 0 16 16" fill="none" xmlns="http://www.w3.org/2000/svg">
<path d="M15.8046 0.195262C15.6146 0.00460506 15.3293 -0.0513952 15.0806 0.0492615L0.41376 6.04929C0.139757 6.16195 -0.0275892 6.4413 0.00375495 6.73595C0.018697 6.87935 0.0797274 7.01403 0.177692 7.1198C0.275657 7.22558 0.405275 7.29674 0.547105 7.32261L7.42653 8.57327L8.67789 15.4527C8.73055 15.744 8.96924 15.9653 9.2639 15.9967C9.28724 15.9987 9.31056 16 9.33324 16C9.60125 16 9.84725 15.838 9.95059 15.5853L15.9507 0.91861C16.0002 0.797049 16.0128 0.663567 15.9868 0.534892C15.9608 0.406217 15.8974 0.288072 15.8046 0.195262Z" fill="white"/>
</svg>
